<svg width="1200" height="627" viewBox="0 0 1200 627" fill="none" xmlns="http://www.w3.org/2000/svg">
<g clip-path="url(#clip0_8_2)">
<path d="M1200 0H0V627H1200V0Z" fill="#868177"/>
<path d="M130.523 108.812V122.908L140.509 112.923L144.077 116.491L134.092 126.477H148.188V131.523H134.092L144.04 141.472L140.472 145.04L130.523 135.092V149.188H125.477V135.092L115.528 145.04L111.96 141.472L121.908 131.523H107.812V126.477H121.908L111.923 116.491L115.491 112.923L125.477 122.908V108.812H130.523Z" fill="#181715"/>
<path d="M238.523 108.812V122.908L248.509 112.923L252.077 116.491L242.092 126.477H256.188V131.523H242.092L252.04 141.472L248.472 145.04L238.523 135.092V149.188H233.477V135.092L223.528 145.04L219.96 141.472L229.908 131.523H215.812V126.477H229.908L219.923 116.491L223.491 112.923L233.477 122.908V108.812H238.523Z" fill="#868177"/>
</g>
<defs>
<clipPath id="clip0_8_2">
<rect width="1200" height="627" fill="white"/>
</clipPath>
</defs>
</svg>
